<?xml version="1.0" encoding="UTF-8"?>
<svg id="a" xmlns="http://www.w3.org/2000/svg" viewBox="0 0 760 760">
  <defs>
    <style>
      .o, .p, .q {
        stroke-width: 0px;
      }

      .o, .q {
        fill: #000;
      }

      .p {
        fill: #fff;
      }

      .p, .q {
        fill-rule: evenodd;
      }
    </style>
  </defs>
  <g id="b">
    <g id="c">
      <path id="d" class="q" d="M361.41,108.03l89.83,255.39h0c3.05,8.67,2.28,17.76-1.43,25.44-3.71,7.68-10.37,13.94-19.09,16.98-7.56,2.64-15.81,2.48-23.27-.43l-137.97-53.84c-12.85-5.01-22.87-15.36-27.43-28.32l-67.93-193.16c-2.37-6.75-1.77-13.82,1.12-19.79s8.07-10.85,14.85-13.21c2.76-.96,5.67-1.45,8.6-1.45h145.2c7.9,0,14.93,4.97,17.55,12.38h0Z"/>
      <path id="e" class="p" d="M198.67,110.45h147.84l90.7,257.87c3.39,9.64-1.71,20.2-11.4,23.56-4.2,1.46-8.78,1.38-12.93-.24l-137.97-53.84c-8.82-3.44-15.7-10.54-18.83-19.44l-67.94-193.16c-2.04-5.79,1.03-12.11,6.84-14.14,1.18-.42,2.43-.62,3.68-.62h0Z"/>
      <path id="f" class="q" d="M361.36,115.95l-78.86,91.55c-11.65,13.53-28.66,21.31-46.57,21.31h-101.23c-9.24,0-17.6-3.73-23.66-9.75-6.05-6.02-9.79-14.34-9.79-23.54,0-8.06,2.95-15.85,8.28-21.93l50.22-57.11c11.64-13.24,28.47-20.84,46.16-20.84h135.97l19.49,20.3h0Z"/>
      <path id="g" class="p" d="M205.89,110.45h140.61l-75.3,87.42c-8.83,10.25-21.72,16.15-35.28,16.15h-101.23c-10.27,0-18.59-8.28-18.59-18.49,0-4.48,1.64-8.8,4.6-12.18l50.22-57.11c8.82-10.03,21.57-15.78,34.97-15.78h0Z"/>
      <path id="h" class="q" d="M329.52,335.39c48.14-23.95,104.8-23.95,152.94,0l146.51,72.9c9.13,4.54,16.58,11.46,21.75,19.77s8.05,18.04,8.05,28.19v129.54c0,10.15-2.88,19.88-8.05,28.19s-12.61,15.23-21.75,19.77l-146.51,72.9c-48.14,23.95-104.8,23.95-152.94,0l-12.74-6.34v32.83l-104.08-51.78v-32.83l-29.68-14.77c-9.13-4.54-16.58-11.46-21.75-19.77-5.17-8.31-8.05-18.04-8.05-28.19v-129.54c0-10.15,2.88-19.88,8.05-28.19,5.17-8.32,12.61-15.23,21.75-19.77l146.51-72.9h0Z"/>
      <path id="i" class="p" d="M301.9,709.21l-29.74-14.8v-80.91l29.74,14.8v-14.8l-29.74-14.8v-29.59l-14.87-7.4v29.59l-29.74-14.8v14.8l29.74,14.8v80.91l-29.74-14.8v-58.72l-14.87-7.4v25.89l-23.03-11.46c-13.22-6.57-21.58-20.03-21.58-34.74v-129.54c0-14.71,8.35-28.16,21.58-34.74l146.51-72.9c43.96-21.87,95.69-21.87,139.64,0l146.51,72.9c13.22,6.57,21.58,20.03,21.58,34.74v129.54c0,14.71-8.35,28.16-21.58,34.74l-146.51,72.9c-43.96,21.87-95.69,21.87-139.64,0l-19.39-9.65v-25.89l-14.87-7.4v58.72h0Z"/>
      <path id="j" class="q" d="M484.05,26.86c7.59,0,14.97,2.57,20.9,7.3l104.54,83.22c12.34,9.83,19.53,24.71,19.53,40.44v284.04c0,9.19-3.75,17.51-9.79,23.54-6.05,6.02-14.41,9.75-23.66,9.75-7.59,0-14.97-2.57-20.9-7.3l-104.54-83.22c-12.34-9.83-19.53-24.71-19.53-40.44v-115.95l36.08-29.17-36.08-29.91V60.15c0-9.19,3.75-17.51,9.79-23.54,6.05-6.02,14.41-9.75,23.66-9.75h0Z"/>
      <path id="k" class="p" d="M495.66,45.71l104.54,83.22c8.82,7.02,13.95,17.64,13.95,28.88v284.04c0,10.22-8.32,18.49-18.59,18.49-4.22,0-8.32-1.43-11.61-4.05l-104.54-83.22c-8.82-7.02-13.95-17.64-13.95-28.88v-108.91l44.61-36.06-44.61-36.99V60.15c0-10.22,8.32-18.49,18.59-18.49,4.22,0,8.32,1.43,11.61,4.05h0Z"/>
      <path id="l" class="q" d="M168.08,460.01l29.95,45.7,28.2-14.03,6.65,13.23-26.68,13.27,23.27,35.51-12.45,8.08-24.21-36.93-24.74,12.31v-16.54l16.57-8.24-16.57-25.27v-27.09h0Z"/>
      <path id="m" class="o" d="M392.04,554.31c23.59,0,44.69,9.67,63.07,28.65l12.86-9.4,8.8,11.93-23.71,17.74c-17.87-22.95-38.08-34.12-61.04-34.12s-43.16,11.17-61.04,34.12l-11.76-9.06c20.54-26.37,44.93-39.86,72.78-39.86h.02Z"/>
      <path id="n" class="o" d="M444.53,548.07l13.26,6.69-25.31,49.72-13.26-6.69,25.31-49.72ZM420.37,535.13l13.26,6.69-25.31,49.72-13.26-6.69,25.31-49.72Z"/>
    </g>
  </g>
</svg>